<svg id="Capa_1" enable-background="new 0 0 512 512" height="512" viewBox="0 0 512 512" width="512" xmlns="http://www.w3.org/2000/svg"><g fill="#c1c1c1"><path d="m225.095 466.157c-4.268 0-7.726-3.459-7.726-7.726v-30.906c0-4.267 3.459-7.726 7.726-7.726s7.726 3.459 7.726 7.726v30.906c0 4.267-3.459 7.726-7.726 7.726z"/><path d="m225.095 404.175c-4.268 0-7.726-3.459-7.726-7.726v-30.734c0-4.267 3.459-7.726 7.726-7.726s7.726 3.459 7.726 7.726v30.734c0 4.266-3.459 7.726-7.726 7.726z"/><path d="m225.095 69.537c-4.268 0-7.726-3.459-7.726-7.726v-30.838c0-4.267 3.459-7.726 7.726-7.726s7.726 3.459 7.726 7.726v30.838c0 4.267-3.459 7.726-7.726 7.726z"/></g><path d="m200.885 484.185v-15.453c0-5.69 4.612-10.302 10.302-10.302h27.815c5.69 0 10.302 4.612 10.302 10.302v15.453z" fill="#7692e2"/><path d="m286.39 512h-122.591c-6.827 0-12.362-5.535-12.362-12.362v-5.151c0-11.379 9.225-20.604 20.604-20.604h106.109c11.379 0 20.604 9.225 20.604 20.604v5.151c-.002 6.827-5.536 12.362-12.364 12.362z" fill="#a0adea"/><path d="m298.753 494.487v5.151c0 6.83-5.532 12.362-12.362 12.362h-30.905c6.83 0 12.362-5.532 12.362-12.362v-5.151c0-11.383-9.22-20.604-20.604-20.604h30.905c11.383 0 20.604 9.22 20.604 20.604z" fill="#7692e2"/><path d="m225.095 365.714c-83.921 0-151.952-68.031-151.952-151.952 0-83.921 68.031-151.952 151.952-151.952 83.921 0 151.952 68.031 151.952 151.952-.001 83.921-68.032 151.952-151.952 151.952z" fill="#caedff"/><path d="m206.891 164.314v4.811c0 10.425 8.458 18.883 18.893 18.883h30.905c10.426 0 18.883 8.458 18.883 18.883v17.966c0 7.366-4.285 14.062-10.982 17.142l-17.874 8.252c-6.696 3.08-10.982 9.776-10.982 17.153v22.592c0 10.436-8.448 18.883-18.883 18.883h-8.138c-5.511 0-10.755-2.411-14.34-6.593l-51.612-60.214c-2.936-3.42-4.543-7.778-4.543-12.29v-22.891c0-10.425 8.448-18.883 18.883-18.883 5.213 0 9.941-2.112 13.351-5.532 3.42-3.42 5.532-8.138 5.532-13.351v-4.471c0-10.425-8.448-18.883-18.883-18.883-5.213 0-9.941-2.112-13.351-5.532-3.42-3.42-5.532-8.138-5.532-13.351v-37.808c24.621-17.183 54.569-27.269 86.875-27.269 17.719 0 34.727 3.029 50.53 8.602v56.124c0 10.436-8.458 18.894-18.883 18.894h-30.957c-10.434 0-18.892 8.447-18.892 18.883z" fill="#85d387"/><path d="m275.625 70.413v56.124c0 10.435-8.459 18.894-18.894 18.894h-30.895c10.426 0 18.883-8.458 18.883-18.894v-44.732c0-6.947-4.618-13.106-11.331-14.893-7.696-2.049-15.633-3.507-23.757-4.318 5.079-.515 10.24-.783 15.463-.783 17.72 0 34.728 3.029 50.531 8.602z" fill="#5bba5b"/><path d="m275.573 206.891v17.966c0 7.366-4.285 14.062-10.982 17.142l-17.874 8.252c-6.696 3.08-10.982 9.776-10.982 17.153v22.592c0 10.436-8.448 18.883-18.883 18.883h-8.138c-4.141 0-8.138-1.36-11.383-3.812 4.553-3.451 7.5-8.911 7.5-15.072v-22.592c0-7.376 4.285-14.072 10.982-17.153l17.873-8.25c6.696-3.08 10.982-9.776 10.982-17.142v-17.966c0-10.425-8.458-18.883-18.883-18.883h30.905c10.426-.001 18.883 8.457 18.883 18.882z" fill="#5bba5b"/><path d="m377.046 213.763c0 41.959-17.008 79.942-44.504 107.448-27.506 27.496-65.489 44.504-107.448 44.504-5.213 0-10.374-.268-15.453-.773 35.788-3.616 67.909-19.656 91.995-43.731 27.495-27.506 44.504-65.489 44.504-107.448s-17.008-79.942-44.504-107.448c-24.086-24.075-56.207-40.115-91.995-43.731 5.079-.505 10.24-.773 15.453-.773 41.959 0 79.942 17.008 107.448 44.504 27.496 27.506 44.504 65.488 44.504 107.448z" fill="#8fd9ef"/><path d="m275.625 70.413v15.051c-19.429-12.362-41.856-20.428-65.942-22.87 5.068-.525 10.209-.783 15.411-.783 17.72 0 34.728 3.029 50.531 8.602z" fill="#5bba5b"/><path d="m85.293 73.96c-6.361-6.361-5.974-16.803.857-22.657 83.984-71.985 210.575-68.217 290.098 11.306 83.479 83.479 83.479 218.826 0 302.306-79.523 79.523-206.114 83.292-290.098 11.306-6.83-5.855-7.218-16.296-.857-22.657 5.734-5.734 14.888-6.015 21.049-.742 71.843 61.486 180.059 58.232 248.052-9.761 71.41-71.41 71.41-187.189 0-258.599-67.993-67.993-176.21-71.247-248.052-9.761-6.161 5.274-15.315 4.994-21.049-.741z" fill="#f4be67"/></svg>